<?xml version="1.0" encoding="UTF-8"?>
<!DOCTYPE svg PUBLIC "-//W3C//DTD SVG 1.1//EN" "http://www.w3.org/Graphics/SVG/1.1/DTD/svg11.dtd">
<svg xmlns="http://www.w3.org/2000/svg" version="1.1" width="768px" height="768px" style="shape-rendering:geometricPrecision; text-rendering:geometricPrecision; image-rendering:optimizeQuality; fill-rule:evenodd; clip-rule:evenodd" xmlns:xlink="http://www.w3.org/1999/xlink">
<g><path style="opacity:0.997" fill="#064d83" d="M 355.5,-0.5 C 374.167,-0.5 392.833,-0.5 411.5,-0.5C 531.301,11.135 626.801,65.135 698,161.5C 738.527,219.912 761.694,284.579 767.5,355.5C 767.5,374.167 767.5,392.833 767.5,411.5C 754.292,542.142 692.626,642.642 582.5,713C 529.617,744.351 472.617,762.518 411.5,767.5C 392.833,767.5 374.167,767.5 355.5,767.5C 224.858,754.292 124.358,692.626 54,582.5C 22.6491,529.617 4.48245,472.617 -0.5,411.5C -0.5,392.833 -0.5,374.167 -0.5,355.5C 12.7073,224.858 74.3739,124.358 184.5,54C 237.382,22.6493 294.382,4.48267 355.5,-0.5 Z"/></g>
<g><path style="opacity:1" fill="#dad4c5" d="M 405.5,27.5 C 407.39,27.2965 408.89,27.9632 410,29.5C 411.903,31.441 412.736,33.7743 412.5,36.5C 408.029,36.3537 404.029,37.5204 400.5,40C 402.956,41.7105 405.623,43.0438 408.5,44C 409.337,45.0113 409.67,46.1779 409.5,47.5C 412.817,46.7791 416.151,46.6124 419.5,47C 421.478,49.4973 421.978,52.3307 421,55.5C 419.293,56.4585 417.459,57.1252 415.5,57.5C 412.87,56.6221 410.203,55.9555 407.5,55.5C 407.604,61.2299 408.271,66.8965 409.5,72.5C 409.029,79.9274 408.029,87.2608 406.5,94.5C 401.03,98.0896 397.364,96.7562 395.5,90.5C 396.611,89.3887 397.278,88.0554 397.5,86.5C 396.202,82.3256 396.202,78.159 397.5,74C 396.736,68.538 396.236,63.038 396,57.5C 393.91,56.2092 392.576,56.8758 392,59.5C 391.878,66.3103 390.878,72.9769 389,79.5C 387.487,82.5244 385.487,85.1911 383,87.5C 382.517,88.448 382.351,89.448 382.5,90.5C 380.5,90.5 378.5,90.5 376.5,90.5C 379.522,82.9277 381.856,75.0944 383.5,67C 381.819,63.4963 379.153,62.663 375.5,64.5C 374.115,65.5505 373.115,66.8839 372.5,68.5C 373.845,70.3228 374.345,72.3228 374,74.5C 370.917,76.4377 367.751,78.1043 364.5,79.5C 365.162,83.7282 363.662,86.7282 360,88.5C 358.779,87.7282 357.779,86.7282 357,85.5C 356.899,82.3004 356.232,79.3004 355,76.5C 353.615,77.5505 352.615,78.8839 352,80.5C 351.225,89.6152 346.392,94.1152 337.5,94C 336.745,91.8252 335.912,89.6585 335,87.5C 333.989,86.6634 332.822,86.33 331.5,86.5C 332.025,81.1437 335.025,78.3104 340.5,78C 343.618,73.2139 347.118,68.7139 351,64.5C 351.333,62.5 351.667,60.5 352,58.5C 355.832,57.1636 357.332,54.4969 356.5,50.5C 351.503,49.2448 347.337,46.5781 344,42.5C 343.55,39.9362 344.716,38.4362 347.5,38C 350.833,38 354.167,38 357.5,38C 362.778,36.277 367.778,34.1104 372.5,31.5C 375.622,32.1032 378.122,33.7699 380,36.5C 381.534,31.1986 384.534,30.1986 389,33.5C 394.268,30.4303 399.768,28.4303 405.5,27.5 Z"/></g>
<g><path style="opacity:1" fill="#0f5084" d="M 380.5,40.5 C 382.941,42.2713 385.607,43.6047 388.5,44.5C 391.381,43.922 394.048,42.922 396.5,41.5C 396.5,44.5 396.5,47.5 396.5,50.5C 392.714,50.6068 389.714,49.1068 387.5,46C 386.167,45.3333 384.833,45.3333 383.5,46C 382.556,48.7191 382.223,51.5525 382.5,54.5C 379.333,54.4001 376.333,55.0668 373.5,56.5C 371.902,55.5153 370.235,55.3486 368.5,56C 366.872,59.1499 364.538,59.9832 361.5,58.5C 362.167,56.8333 362.833,55.1667 363.5,53.5C 367.821,50.6759 369.487,46.8426 368.5,42C 371.536,41.3615 374.536,41.5282 377.5,42.5C 379.038,42.5466 380.038,41.8799 380.5,40.5 Z"/></g>
<g><path style="opacity:1" fill="#dad4c5" d="M 498.5,47.5 C 501.812,48.4845 505.145,49.4845 508.5,50.5C 511.057,53.6887 512.057,57.3554 511.5,61.5C 516.303,61.4438 520.469,63.1105 524,66.5C 524.892,69.9518 526.558,72.9518 529,75.5C 529.684,76.7839 529.517,77.9505 528.5,79C 526.109,79.2868 523.776,79.7868 521.5,80.5C 518.327,78.7169 514.994,77.2169 511.5,76C 510.028,72.4482 511.362,70.7815 515.5,71C 516.451,70.2825 516.617,69.4491 516,68.5C 512.38,66.8166 508.546,66.1499 504.5,66.5C 504.753,68.8273 504.086,70.8273 502.5,72.5C 504.907,73.8968 507.407,75.2301 510,76.5C 511.128,78.3453 511.628,80.3453 511.5,82.5C 507.667,81.9751 504,80.9751 500.5,79.5C 500.822,83.5108 502.822,86.5108 506.5,88.5C 507.767,90.3707 507.767,92.2041 506.5,94C 501.786,96.0512 497.619,98.8845 494,102.5C 493.056,105.347 493.556,107.847 495.5,110C 502.559,112.452 509.559,114.785 516.5,117C 517.35,110.169 518.35,103.335 519.5,96.5C 522.044,96.1043 524.211,96.771 526,98.5C 526.211,104.201 525.711,109.868 524.5,115.5C 524.179,118.512 525.512,119.845 528.5,119.5C 529.224,125.676 527.224,130.676 522.5,134.5C 521.059,133.135 519.726,131.635 518.5,130C 515.833,129.333 513.167,128.667 510.5,128C 502.921,123.381 495.254,119.047 487.5,115C 485.323,113.503 483.99,111.503 483.5,109C 485.696,101.802 489.196,95.3021 494,89.5C 494.774,87.597 494.44,85.9304 493,84.5C 488.346,88.9883 483.846,93.6549 479.5,98.5C 473.327,103.289 466.327,104.789 458.5,103C 451.838,102.286 445.505,100.619 439.5,98C 436.476,95.5254 435.81,92.5254 437.5,89C 439.833,88.3333 442.167,88.3333 444.5,89C 446.422,90.8758 448.589,92.3758 451,93.5C 454.771,92.8508 458.605,92.8508 462.5,93.5C 468.805,93.9298 474.138,91.9298 478.5,87.5C 474.753,86.3987 471.087,86.732 467.5,88.5C 462.01,86.6816 458.677,83.015 457.5,77.5C 465.08,79.6973 472.913,81.0306 481,81.5C 484.644,81.1062 486.477,79.1062 486.5,75.5C 483.753,75.8134 481.086,75.48 478.5,74.5C 481.362,71.8125 484.528,69.4791 488,67.5C 490.084,65.0284 489.917,62.6951 487.5,60.5C 487.5,58.5 488.5,57.5 490.5,57.5C 493.327,58.9322 496.327,59.5988 499.5,59.5C 499.494,56.1498 498.494,53.1498 496.5,50.5C 497.193,49.4822 497.859,48.4822 498.5,47.5 Z"/></g>
<g><path style="opacity:1" fill="#dbd5c5" d="M 271.5,49.5 C 275.242,51.1484 279.076,51.8151 283,51.5C 283.667,53.8333 283.667,56.1667 283,58.5C 281.166,61.4377 279.666,64.4377 278.5,67.5C 280.308,67.5086 281.975,67.0086 283.5,66C 284.878,64.2866 286.545,62.9533 288.5,62C 293.784,60.9851 298.951,59.8185 304,58.5C 308.653,58.1515 311.153,60.3182 311.5,65C 310.5,68 308.5,70 305.5,71C 293.794,70.4988 283.127,73.3321 273.5,79.5C 271.187,81.6323 269.52,84.1323 268.5,87C 270.424,92.6812 270.924,98.5146 270,104.5C 268.033,108.78 265.7,112.78 263,116.5C 257.995,119.672 253.829,123.672 250.5,128.5C 247.912,129.718 245.245,130.218 242.5,130C 239.39,125.363 240.724,122.363 246.5,121C 251.633,114.561 256.133,107.728 260,100.5C 260.953,97.5682 261.453,94.5682 261.5,91.5C 260.448,91.3505 259.448,91.5172 258.5,92C 253.004,97.4792 248.337,103.479 244.5,110C 238.947,110.296 233.614,109.296 228.5,107C 228.173,102.982 229.84,99.6489 233.5,97C 239.284,94.7373 244.784,91.904 250,88.5C 250.667,87.5 250.667,86.5 250,85.5C 246.754,81.927 242.92,79.0937 238.5,77C 235.833,74.3333 235.833,71.6667 238.5,69C 241.305,68.5585 243.972,69.0585 246.5,70.5C 251.916,66.5297 251.749,62.863 246,59.5C 246.419,54.8963 249.086,52.2296 254,51.5C 258.133,51.4692 259.966,53.4692 259.5,57.5C 260.552,57.6495 261.552,57.4828 262.5,57C 265.129,53.8543 268.129,51.3543 271.5,49.5 Z"/></g>
<g><path style="opacity:1" fill="#dad4c4" d="M 480.5,51.5 C 482.5,51.5 484.5,51.5 486.5,51.5C 486.142,55.5092 485.642,59.5092 485,63.5C 481.183,66.4896 477.016,68.8229 472.5,70.5C 469.52,69.7329 466.854,68.3996 464.5,66.5C 467.999,59.328 473.332,54.328 480.5,51.5 Z"/></g>
<g><path style="opacity:1" fill="#205788" d="M 268.5,58.5 C 269.833,58.5 271.167,58.5 272.5,58.5C 271.861,62.5272 271.028,66.5272 270,70.5C 269.632,71.91 268.799,72.91 267.5,73.5C 263.311,68.271 263.644,63.271 268.5,58.5 Z"/></g>
<g><path style="opacity:1" fill="#39658f" d="M 363.5,64.5 C 364.675,64.281 365.675,64.6143 366.5,65.5C 365.52,66.9814 364.353,68.3147 363,69.5C 360.99,67.6037 361.157,65.937 363.5,64.5 Z"/></g>
<g><path style="opacity:1" fill="#436e93" d="M 493.5,73.5 C 493.756,70.7597 494.756,68.4264 496.5,66.5C 497.482,69.5503 496.482,71.8836 493.5,73.5 Z"/></g>
<g><path style="opacity:1" fill="#1f5788" d="M 251.5,71.5 C 254.595,71.6263 256.428,73.293 257,76.5C 257.946,78.9563 257.446,80.9563 255.5,82.5C 252.752,79.3393 251.419,75.6726 251.5,71.5 Z"/></g>
<g><path style="opacity:1" fill="#1f5687" d="M 493.5,73.5 C 493.351,74.552 493.517,75.552 494,76.5C 500.491,80.164 499.991,81.8307 492.5,81.5C 492.277,79.6583 491.943,77.825 491.5,76C 491.684,74.6244 492.351,73.7911 493.5,73.5 Z"/></g>
<g><path style="opacity:1" fill="#dcd5c5" d="M 287.5,82.5 C 292.959,82.1033 298.292,82.6033 303.5,84C 305.974,87.7747 308.807,91.2747 312,94.5C 312.584,97.2567 312.25,99.9234 311,102.5C 308.936,103.591 306.769,103.758 304.5,103C 301.629,101.065 298.629,99.3988 295.5,98C 286.942,97.7066 279.442,94.8733 273,89.5C 272.316,88.2161 272.483,87.0495 273.5,86C 278.313,84.8852 282.98,83.7186 287.5,82.5 Z"/></g>
<g><path style="opacity:1" fill="#dad4c5" d="M 575.5,91.5 C 577.527,91.3379 579.527,91.5045 581.5,92C 584.286,94.7262 587.619,96.3928 591.5,97C 594.28,98.8123 596.78,100.979 599,103.5C 600.385,110.448 597.719,112.781 591,110.5C 586.373,110.628 584.539,112.961 585.5,117.5C 587.527,117.662 589.527,117.495 591.5,117C 593.677,115.485 595.844,113.985 598,112.5C 600.546,113.452 602.046,115.285 602.5,118C 607.664,121.735 610.164,120.235 610,113.5C 612.54,112.124 614.54,112.79 616,115.5C 616.175,119.211 616.675,122.878 617.5,126.5C 619.115,127.154 620.782,127.654 622.5,128C 623.698,130.698 625.698,132.531 628.5,133.5C 629.606,135.284 629.606,137.118 628.5,139C 631.453,141.934 630.953,144.101 627,145.5C 622.231,142.397 617.231,139.731 612,137.5C 610.333,138.5 608.667,139.5 607,140.5C 603.558,138.862 600.058,137.362 596.5,136C 594.259,134.261 592.592,132.094 591.5,129.5C 591.833,128.5 592.5,127.833 593.5,127.5C 596.81,129.482 599.81,131.815 602.5,134.5C 604.045,135.452 605.712,135.785 607.5,135.5C 607.838,132.843 607.171,130.51 605.5,128.5C 606.629,126.471 606.129,126.137 604,127.5C 602.878,125.376 601.378,123.543 599.5,122C 596.874,123.628 593.874,124.795 590.5,125.5C 587.5,125 584.5,124.5 581.5,124C 580.044,121.734 579.21,119.234 579,116.5C 578.275,115.941 577.442,115.608 576.5,115.5C 573.482,117.145 570.649,119.145 568,121.5C 566.291,124.418 564.458,127.252 562.5,130C 558.57,131.751 554.57,131.918 550.5,130.5C 550.167,130 549.833,129.5 549.5,129C 551.937,124.228 555.437,120.395 560,117.5C 563.621,113.09 567.121,108.59 570.5,104C 571.5,103.333 572.5,103.333 573.5,104C 575.657,105.981 577.324,108.314 578.5,111C 580.695,111.712 582.362,111.045 583.5,109C 579.94,105.038 577.107,100.538 575,95.5C 574.421,94.0715 574.588,92.7382 575.5,91.5 Z"/></g>
<g><path style="opacity:1" fill="#dcd6c5" d="M 182.5,102.5 C 186.872,103.383 191.206,103.55 195.5,103C 197.67,104.586 200.004,105.92 202.5,107C 203.422,110.459 203.255,113.959 202,117.5C 198.15,117.681 195.817,119.681 195,123.5C 192.296,128.125 190.962,133.125 191,138.5C 187.849,140.651 185.016,143.151 182.5,146C 187.058,150.568 190.892,155.735 194,161.5C 196.991,167.309 196.991,172.976 194,178.5C 192.274,179.576 190.441,179.743 188.5,179C 185.029,172.053 180.363,166.053 174.5,161C 171.83,160.457 169.33,160.957 167,162.5C 166.228,162.355 165.561,162.022 165,161.5C 164.336,158.484 164.836,155.651 166.5,153C 164.739,149.569 162.572,146.403 160,143.5C 158.557,147.158 156.391,150.325 153.5,153C 149.179,153.499 144.846,153.666 140.5,153.5C 140.343,152.127 140.51,150.793 141,149.5C 145.701,144.594 149.535,139.094 152.5,133C 149.901,129.866 146.567,128.033 142.5,127.5C 141.86,118.636 146.027,113.97 155,113.5C 159.315,113.622 162.815,115.288 165.5,118.5C 167.915,114.904 170.582,111.404 173.5,108C 176.596,106.128 179.596,104.295 182.5,102.5 Z"/></g>
<g><path style="opacity:1" fill="#125185" d="M 179.5,113.5 C 180.833,113.5 182.167,113.5 183.5,113.5C 185.455,120.53 184.621,127.197 181,133.5C 179.561,135.448 177.728,136.781 175.5,137.5C 172.769,135.051 170.769,132.051 169.5,128.5C 172.432,123.235 175.765,118.235 179.5,113.5 Z"/></g>
<g><path style="opacity:1" fill="#e0d8c6" d="M 359.5,118.5 C 452.018,113.03 528.518,145.03 589,214.5C 651.917,296.582 665.25,386.248 629,483.5C 595.534,559.967 539.034,610.8 459.5,636C 352.195,663.336 260.695,636.836 185,556.5C 125.233,483.632 106.9,401.299 130,309.5C 154.234,230.928 203.734,174.428 278.5,140C 304.587,128.897 331.587,121.73 359.5,118.5 Z"/></g>
<g><path style="opacity:1" fill="#dad4c5" d="M 571.5,125.5 C 583.736,132.29 596.069,139.123 608.5,146C 611.125,148.196 612.125,151.03 611.5,154.5C 609.801,154.66 608.134,154.494 606.5,154C 604.833,151.667 603.167,149.333 601.5,147C 599.235,145.882 596.901,145.049 594.5,144.5C 594.909,148.264 594.909,151.93 594.5,155.5C 590.77,155.487 587.104,155.987 583.5,157C 581.381,159.218 581.048,161.718 582.5,164.5C 588.874,168.255 594.874,172.255 600.5,176.5C 605.794,174.392 610.461,171.226 614.5,167C 616.955,166.228 618.622,167.061 619.5,169.5C 619.012,172.474 617.512,174.807 615,176.5C 614.18,182.161 612.013,187.161 608.5,191.5C 605.18,193.79 601.68,194.457 598,193.5C 591.891,186.27 585.558,179.27 579,172.5C 570.459,161.945 572.626,154.278 585.5,149.5C 586.386,148.675 586.719,147.675 586.5,146.5C 579.622,147.459 572.789,147.792 566,147.5C 561.169,147.138 556.503,146.138 552,144.5C 550.56,145.148 549.06,145.481 547.5,145.5C 546.737,142.859 546.57,140.192 547,137.5C 547.725,136.941 548.558,136.608 549.5,136.5C 560.694,139.193 572.027,140.026 583.5,139C 580.18,136.798 576.68,134.964 573,133.5C 572.546,131.464 571.713,129.63 570.5,128C 570.743,127.098 571.077,126.265 571.5,125.5 Z"/></g>
<g><path style="opacity:1" fill="#30618d" d="M 613.5,131.5 C 614.833,131.5 616.167,131.5 617.5,131.5C 617.254,134.47 615.588,135.803 612.5,135.5C 612.433,134.041 612.766,132.708 613.5,131.5 Z"/></g>
<g><path style="opacity:1" fill="#dbd5c5" d="M 143.5,156.5 C 147.846,156.334 152.179,156.501 156.5,157C 160.561,159.973 164.061,163.473 167,167.5C 167.17,169.845 166.837,172.179 166,174.5C 165.107,175.081 164.107,175.415 163,175.5C 157.707,175.169 153.541,173.002 150.5,169C 146.751,167.059 142.751,165.726 138.5,165C 136.675,163.534 136.175,161.701 137,159.5C 139.045,158.074 141.212,157.074 143.5,156.5 Z"/></g>
<g><path style="opacity:1" fill="#b5a588" d="M 299.5,242.5 C 298.391,242.443 297.391,242.11 296.5,241.5C 296.5,240.833 296.167,240.5 295.5,240.5C 295.904,239.244 296.571,238.077 297.5,237C 296.047,235.217 295.047,233.217 294.5,231C 295.602,224.842 295.602,218.675 294.5,212.5C 285.951,213.062 277.784,215.062 270,218.5C 269.781,217.062 269.281,215.729 268.5,214.5C 267.137,215.879 266.137,215.713 265.5,214C 267.418,211.074 269.752,208.408 272.5,206C 277.599,205.07 282.599,203.737 287.5,202C 289.333,201.5 290.5,200.333 291,198.5C 291.667,195.5 291.667,192.5 291,189.5C 285.716,181.983 283.05,173.65 283,164.5C 287.324,165.608 291.491,167.108 295.5,169C 293.384,170.171 292.718,171.671 293.5,173.5C 294.281,172.263 295.281,171.263 296.5,170.5C 298.316,172.118 299.649,174.118 300.5,176.5C 301.325,177.386 302.325,177.719 303.5,177.5C 304.162,181.157 304.829,184.824 305.5,188.5C 305.284,190.384 304.617,192.051 303.5,193.5C 305.406,195.242 307.74,196.242 310.5,196.5C 320.644,191.731 331.31,189.898 342.5,191C 347.622,197.612 345.955,200.612 337.5,200C 336.643,200.689 335.977,201.522 335.5,202.5C 336.711,203.72 336.711,204.887 335.5,206C 330.332,204.676 324.999,204.342 319.5,205C 315.985,207.708 311.985,209.374 307.5,210C 306.759,216.557 305.593,223.057 304,229.5C 302.615,230.551 301.615,231.884 301,233.5C 300.637,236.544 300.137,239.544 299.5,242.5 Z"/></g>
<g><path style="opacity:1" fill="#b5a588" d="M 527.5,214.5 C 524.171,215.499 520.838,216.499 517.5,217.5C 519.897,214.956 521.564,211.956 522.5,208.5C 521.667,200.175 520.834,191.841 520,183.5C 517.402,181 514.235,179.667 510.5,179.5C 498.202,182.333 485.868,183.833 473.5,184C 472.833,185.333 472.167,186.667 471.5,188C 468.588,189.24 465.921,190.906 463.5,193C 465.878,193.974 465.544,194.641 462.5,195C 461.149,198.195 458.815,200.028 455.5,200.5C 455.137,195.109 453.137,190.443 449.5,186.5C 447.67,188.027 446.67,187.527 446.5,185C 447.51,181.791 449.843,180.291 453.5,180.5C 453.807,177.72 454.807,175.22 456.5,173C 455.523,171.503 454.523,170.003 453.5,168.5C 454.037,165.26 455.703,164.26 458.5,165.5C 458.069,166.293 457.735,167.127 457.5,168C 459.916,174.077 461.416,173.911 462,167.5C 463.307,168.772 464.807,169.772 466.5,170.5C 464.973,172.33 465.473,173.33 468,173.5C 470.819,173.007 473.319,171.84 475.5,170C 477.473,169.505 479.473,169.338 481.5,169.5C 481.579,170.93 481.246,172.264 480.5,173.5C 483.446,174.655 486.446,174.821 489.5,174C 493.811,171.06 498.477,169.06 503.5,168C 507.478,167.282 511.311,167.782 515,169.5C 517.176,166.713 520.009,165.879 523.5,167C 529.256,177.494 529.923,188.328 525.5,199.5C 527.152,204.342 527.818,209.342 527.5,214.5 Z"/></g>
<g><path style="opacity:1" fill="#1c77a8" d="M 413.5,251.5 C 405.471,259.527 397.805,267.861 390.5,276.5C 383.18,282.821 376.514,289.821 370.5,297.5C 361.799,305.2 353.799,313.533 346.5,322.5C 338.997,316.836 333.164,309.836 329,301.5C 328.333,298.833 328.333,296.167 329,293.5C 330.674,289.476 332.841,285.809 335.5,282.5C 338.167,280.5 340.5,278.167 342.5,275.5C 349.937,267.562 357.604,259.728 365.5,252C 364.944,251.617 364.611,251.117 364.5,250.5C 365.552,250.649 366.552,250.483 367.5,250C 374.708,242.296 381.708,234.462 388.5,226.5C 401.8,213.032 414.966,199.366 428,185.5C 434.408,191.238 440.075,197.571 445,204.5C 446.484,212.202 444.484,218.869 439,224.5C 429.93,233.067 421.43,242.067 413.5,251.5 Z"/></g>
<g><path style="opacity:1" fill="#18608e" d="M 388.5,226.5 C 381.708,234.462 374.708,242.296 367.5,250C 366.552,250.483 365.552,250.649 364.5,250.5C 357.985,245.822 353.152,239.822 350,232.5C 348.959,227.56 349.626,222.894 352,218.5C 356.681,213.651 361.515,208.985 366.5,204.5C 374.188,211.521 381.521,218.854 388.5,226.5 Z"/></g>
<g><path style="opacity:1" fill="#e4dfbe" d="M 269.5,225.5 C 266.973,227.605 264.64,229.939 262.5,232.5C 257.521,230.346 252.521,228.179 247.5,226C 242.572,224.582 237.572,224.249 232.5,225C 229.735,227.995 228.902,231.495 230,235.5C 232.012,242.373 234.512,249.04 237.5,255.5C 235.758,258.643 233.758,261.643 231.5,264.5C 223.816,253.448 219.983,241.115 220,227.5C 220.641,221.373 223.808,217.206 229.5,215C 244.174,213.73 257.507,217.23 269.5,225.5 Z"/></g>
<g><path style="opacity:1" fill="#e4dfbf" d="M 527.5,214.5 C 548.28,212.8 555.78,222.134 550,242.5C 547.196,251.433 543.363,259.767 538.5,267.5C 538.649,266.448 538.483,265.448 538,264.5C 535.675,262.499 533.842,260.166 532.5,257.5C 535.982,251.255 538.815,244.588 541,237.5C 544.019,226.012 539.853,221.845 528.5,225C 522.373,226.875 516.373,229.042 510.5,231.5C 508.323,228.246 505.323,226.246 501.5,225.5C 504.515,223.326 507.849,221.659 511.5,220.5C 513.289,219.123 515.289,218.123 517.5,217.5C 520.838,216.499 524.171,215.499 527.5,214.5 Z"/></g>
<g><path style="opacity:1" fill="#b6a68a" d="M 511.5,220.5 C 507.849,221.659 504.515,223.326 501.5,225.5C 492.661,229.749 484.328,234.749 476.5,240.5C 474.167,241.833 471.833,243.167 469.5,244.5C 469.34,242.801 469.506,241.134 470,239.5C 471.855,236.311 474.355,233.811 477.5,232C 476.873,228.901 476.873,225.734 477.5,222.5C 479.927,222.477 482.26,221.977 484.5,221C 483.04,220.189 482.707,219.355 483.5,218.5C 491.46,221.088 499.46,221.088 507.5,218.5C 509.026,218.994 510.359,219.661 511.5,220.5 Z"/></g>
<g><path style="opacity:1" fill="#e0d8c6" d="M 262.5,232.5 C 270.963,237.234 279.297,242.234 287.5,247.5C 289.389,248.604 291.055,249.937 292.5,251.5C 289.088,253.251 287.755,256.084 288.5,260C 287.463,264.412 289.129,267.079 293.5,268C 291.111,269.096 288.611,269.929 286,270.5C 284.12,276.591 281.453,282.257 278,287.5C 277.28,289.112 277.446,290.612 278.5,292C 281.723,293.126 284.889,293.293 288,292.5C 288.808,290.421 288.641,288.421 287.5,286.5C 283.726,282.641 283.893,278.641 288,274.5C 289.167,275.667 290.333,276.833 291.5,278C 290.35,280.746 289.85,283.579 290,286.5C 291.126,287.944 292.626,288.61 294.5,288.5C 300.588,288.188 306.588,287.021 312.5,285C 316.39,280.888 321.057,278.055 326.5,276.5C 329.5,278.5 332.5,280.5 335.5,282.5C 332.841,285.809 330.674,289.476 329,293.5C 328.333,296.167 328.333,298.833 329,301.5C 333.164,309.836 338.997,316.836 346.5,322.5C 350.167,325.5 353.5,328.833 356.5,332.5C 335.427,332.547 314.427,333.38 293.5,335C 278.82,317.836 265.154,300.003 252.5,281.5C 247.497,272.825 242.497,264.159 237.5,255.5C 234.512,249.04 232.012,242.373 230,235.5C 228.902,231.495 229.735,227.995 232.5,225C 237.572,224.249 242.572,224.582 247.5,226C 252.521,228.179 257.521,230.346 262.5,232.5 Z"/></g>
<g><path style="opacity:1" fill="#dfd6c4" d="M 532.5,257.5 C 530.492,255.073 527.826,254.073 524.5,254.5C 521.728,254.352 519.228,255.019 517,256.5C 512.486,256.456 507.986,256.456 503.5,256.5C 502.061,258.36 500.395,260.027 498.5,261.5C 497.061,260.937 495.561,260.603 494,260.5C 490.467,261.537 486.967,262.37 483.5,263C 482.559,259.189 482.059,255.355 482,251.5C 484.96,249.196 488.46,247.029 492.5,245C 493.823,244.184 494.489,243.017 494.5,241.5C 499.833,238.167 505.167,234.833 510.5,231.5C 516.373,229.042 522.373,226.875 528.5,225C 539.853,221.845 544.019,226.012 541,237.5C 538.815,244.588 535.982,251.255 532.5,257.5 Z"/></g>
<g><path style="opacity:1" fill="#f1efe0" d="M 501.5,225.5 C 505.323,226.246 508.323,228.246 510.5,231.5C 505.167,234.833 499.833,238.167 494.5,241.5C 491.366,242.901 488.366,244.568 485.5,246.5C 483.049,243.723 480.049,241.723 476.5,240.5C 484.328,234.749 492.661,229.749 501.5,225.5 Z"/></g>
<g><path style="opacity:1" fill="#f2f0e1" d="M 269.5,225.5 C 278.666,229.673 287.333,234.673 295.5,240.5C 296.167,240.5 296.5,240.833 296.5,241.5C 292.677,242.246 289.677,244.246 287.5,247.5C 279.297,242.234 270.963,237.234 262.5,232.5C 264.64,229.939 266.973,227.605 269.5,225.5 Z"/></g>
<g><path style="opacity:1" fill="#fcfbfa" d="M 476.5,240.5 C 480.049,241.723 483.049,243.723 485.5,246.5C 480.531,249.478 475.865,252.811 471.5,256.5C 462.176,262.501 453.176,269.001 444.5,276C 443.177,276.816 442.511,277.983 442.5,279.5C 439.5,277.167 436.833,274.5 434.5,271.5C 445.881,262.117 457.548,253.117 469.5,244.5C 471.833,243.167 474.167,241.833 476.5,240.5 Z"/></g>
<g><path style="opacity:1" fill="#fcfcfa" d="M 296.5,241.5 C 297.391,242.11 298.391,242.443 299.5,242.5C 309.143,249.802 318.809,257.135 328.5,264.5C 330.884,266.885 333.55,268.885 336.5,270.5C 338.475,272.137 340.475,273.804 342.5,275.5C 340.5,278.167 338.167,280.5 335.5,282.5C 332.5,280.5 329.5,278.5 326.5,276.5C 322.746,272.452 318.413,269.118 313.5,266.5C 309.386,262.936 305.052,259.603 300.5,256.5C 297.833,254.833 295.167,253.167 292.5,251.5C 291.055,249.937 289.389,248.604 287.5,247.5C 289.677,244.246 292.677,242.246 296.5,241.5 Z"/></g>
<g><path style="opacity:1" fill="#b5a589" d="M 494.5,241.5 C 494.489,243.017 493.823,244.184 492.5,245C 488.46,247.029 484.96,249.196 482,251.5C 482.059,255.355 482.559,259.189 483.5,263C 486.967,262.37 490.467,261.537 494,260.5C 495.561,260.603 497.061,260.937 498.5,261.5C 500.395,260.027 502.061,258.36 503.5,256.5C 507.986,256.456 512.486,256.456 517,256.5C 519.228,255.019 521.728,254.352 524.5,254.5C 527.826,254.073 530.492,255.073 532.5,257.5C 532.167,257.5 531.833,257.5 531.5,257.5C 527.34,258.782 523.174,259.116 519,258.5C 516.367,260.296 513.867,262.296 511.5,264.5C 507.892,263.407 504.225,263.24 500.5,264C 501.858,266.752 501.191,267.252 498.5,265.5C 492.253,266.266 486.253,268.266 480.5,271.5C 479.914,271.291 479.414,270.957 479,270.5C 474.765,271.716 470.931,273.716 467.5,276.5C 466.558,276.392 465.725,276.059 465,275.5C 463.18,269.144 465.18,264.477 471,261.5C 471.494,259.866 471.66,258.199 471.5,256.5C 475.865,252.811 480.531,249.478 485.5,246.5C 488.366,244.568 491.366,242.901 494.5,241.5 Z"/></g>
<g><path style="opacity:1" fill="#b5a588" d="M 292.5,251.5 C 295.167,253.167 297.833,254.833 300.5,256.5C 300.795,260.077 299.795,263.243 297.5,266C 298.5,268 299.5,268 300.5,266C 303.482,265.502 306.482,265.335 309.5,265.5C 309.281,266.675 309.614,267.675 310.5,268.5C 311.265,267.388 312.265,266.721 313.5,266.5C 318.413,269.118 322.746,272.452 326.5,276.5C 321.057,278.055 316.39,280.888 312.5,285C 306.588,287.021 300.588,288.188 294.5,288.5C 292.626,288.61 291.126,287.944 290,286.5C 289.85,283.579 290.35,280.746 291.5,278C 290.333,276.833 289.167,275.667 288,274.5C 283.893,278.641 283.726,282.641 287.5,286.5C 288.641,288.421 288.808,290.421 288,292.5C 284.889,293.293 281.723,293.126 278.5,292C 277.446,290.612 277.28,289.112 278,287.5C 281.453,282.257 284.12,276.591 286,270.5C 288.611,269.929 291.111,269.096 293.5,268C 289.129,267.079 287.463,264.412 288.5,260C 287.755,256.084 289.088,253.251 292.5,251.5 Z"/></g>
<g><path style="opacity:1" fill="#17608e" d="M 413.5,251.5 C 418.833,256.167 423.833,261.167 428.5,266.5C 421.166,275.835 413.166,283.835 404.5,290.5C 399.5,286.167 394.833,281.5 390.5,276.5C 397.805,267.861 405.471,259.527 413.5,251.5 Z"/></g>
<g><path style="opacity:1" fill="#ded6c3" d="M 300.5,256.5 C 305.052,259.603 309.386,262.936 313.5,266.5C 312.265,266.721 311.265,267.388 310.5,268.5C 309.614,267.675 309.281,266.675 309.5,265.5C 306.482,265.335 303.482,265.502 300.5,266C 299.5,268 298.5,268 297.5,266C 299.795,263.243 300.795,260.077 300.5,256.5 Z"/></g>
<g><path style="opacity:1" fill="#e0d8c7" d="M 471.5,256.5 C 471.66,258.199 471.494,259.866 471,261.5C 465.18,264.477 463.18,269.144 465,275.5C 465.725,276.059 466.558,276.392 467.5,276.5C 470.931,273.716 474.765,271.716 479,270.5C 479.414,270.957 479.914,271.291 480.5,271.5C 486.253,268.266 492.253,266.266 498.5,265.5C 501.191,267.252 501.858,266.752 500.5,264C 504.225,263.24 507.892,263.407 511.5,264.5C 513.867,262.296 516.367,260.296 519,258.5C 523.174,259.116 527.34,258.782 531.5,257.5C 531.245,260.016 530.411,262.35 529,264.5C 524.275,271.719 519.775,279.052 515.5,286.5C 503.797,303.051 491.464,319.217 478.5,335C 457.19,334.057 435.857,333.224 414.5,332.5C 423.794,322.037 433.294,311.703 443,301.5C 447.809,293.975 447.643,286.642 442.5,279.5C 442.511,277.983 443.177,276.816 444.5,276C 453.176,269.001 462.176,262.501 471.5,256.5 Z"/></g>
<g><path style="opacity:1" fill="#b6a78b" d="M 336.5,270.5 C 333.55,268.885 330.884,266.885 328.5,264.5C 328.577,263.25 329.244,262.417 330.5,262C 333.877,261.548 337.211,260.882 340.5,260C 338.311,259.323 337.978,258.156 339.5,256.5C 338.147,255.476 337.48,254.143 337.5,252.5C 340.803,253.042 342.803,255.042 343.5,258.5C 342.62,263.398 340.287,267.398 336.5,270.5 Z"/></g>
<g><path style="opacity:1" fill="#1c77a8" d="M 428.5,266.5 C 430.5,268.167 432.5,269.833 434.5,271.5C 436.833,274.5 439.5,277.167 442.5,279.5C 447.643,286.642 447.809,293.975 443,301.5C 433.294,311.703 423.794,322.037 414.5,332.5C 412.738,333.262 411.738,334.596 411.5,336.5C 402.848,344.153 394.848,352.486 387.5,361.5C 380.064,367.598 373.73,374.598 368.5,382.5C 367.761,382.369 367.094,382.536 366.5,383C 359.328,391.004 351.995,398.838 344.5,406.5C 337.475,401.808 331.809,395.808 327.5,388.5C 325.672,382.451 326.506,376.784 330,371.5C 337.969,362.53 346.303,353.863 355,345.5C 357.41,342.603 359.577,339.603 361.5,336.5C 362.239,336.631 362.906,336.464 363.5,336C 370.672,327.996 378.005,320.162 385.5,312.5C 391.436,306.062 397.603,299.729 404,293.5C 404.483,292.552 404.649,291.552 404.5,290.5C 413.166,283.835 421.166,275.835 428.5,266.5 Z"/></g>
<g><path style="opacity:1" fill="#f2f0e1" d="M 237.5,255.5 C 242.497,264.159 247.497,272.825 252.5,281.5C 250.5,284.167 248.5,286.833 246.5,289.5C 245.167,288.167 243.833,286.833 242.5,285.5C 242.167,284.833 241.833,284.167 241.5,283.5C 237.899,277.298 234.566,270.964 231.5,264.5C 233.758,261.643 235.758,258.643 237.5,255.5 Z"/></g>
<g><path style="opacity:1" fill="#ded7c6" d="M 390.5,276.5 C 394.833,281.5 399.5,286.167 404.5,290.5C 404.649,291.552 404.483,292.552 404,293.5C 397.603,299.729 391.436,306.062 385.5,312.5C 380.806,307.14 375.806,302.14 370.5,297.5C 376.514,289.821 383.18,282.821 390.5,276.5 Z"/></g>
<g><path style="opacity:1" fill="#b5a588" d="M 241.5,283.5 C 241.833,284.167 242.167,284.833 242.5,285.5C 242.143,287.589 241.477,289.589 240.5,291.5C 239.5,291 238.5,290.5 237.5,290C 228.5,289.333 219.5,289.333 210.5,290C 209.667,290.833 208.833,291.667 208,292.5C 209.169,303.828 210.669,315.162 212.5,326.5C 209.412,326.803 207.746,325.47 207.5,322.5C 206.178,322.67 205.011,322.337 204,321.5C 202.003,314.847 200.337,308.18 199,301.5C 197.833,299 196.667,296.5 195.5,294C 194.391,293.362 193.225,292.862 192,292.5C 187.405,291.932 182.905,292.599 178.5,294.5C 176.084,294.125 173.75,293.459 171.5,292.5C 170.446,292.68 169.446,293.013 168.5,293.5C 167.167,292.5 167.167,291.5 168.5,290.5C 177.829,284.663 187.996,282.663 199,284.5C 200.059,284.37 200.892,283.87 201.5,283C 200.289,282.107 200.289,281.274 201.5,280.5C 202.833,281.167 204.167,281.833 205.5,282.5C 209.779,281.726 214.113,281.226 218.5,281C 219.025,280.308 219.692,279.808 220.5,279.5C 227.66,280.114 234.66,281.447 241.5,283.5 Z"/></g>
<g><path style="opacity:1" fill="#f5f3e7" d="M 531.5,257.5 C 531.833,257.5 532.167,257.5 532.5,257.5C 533.842,260.166 535.675,262.499 538,264.5C 538.483,265.448 538.649,266.448 538.5,267.5C 534.012,277.305 528.345,286.305 521.5,294.5C 521.537,290.217 519.537,287.55 515.5,286.5C 519.775,279.052 524.275,271.719 529,264.5C 530.411,262.35 531.245,260.016 531.5,257.5 Z"/></g>
<g><path style="opacity:1" fill="#fcfcfa" d="M 515.5,286.5 C 519.537,287.55 521.537,290.217 521.5,294.5C 519.588,298.417 517.255,302.083 514.5,305.5C 511.833,309.167 509.167,312.833 506.5,316.5C 503.025,320.104 500.025,324.104 497.5,328.5C 495.026,330.898 493.692,333.898 493.5,337.5C 500.492,338.249 507.492,338.916 514.5,339.5C 521.316,340.856 528.316,341.856 535.5,342.5C 536.919,343.451 538.585,343.784 540.5,343.5C 548.075,345.046 555.742,346.713 563.5,348.5C 564.051,351.807 564.384,355.14 564.5,358.5C 560.038,358.577 555.705,357.91 551.5,356.5C 544.496,355.166 537.496,353.833 530.5,352.5C 519.23,350.508 507.897,348.841 496.5,347.5C 495.167,347.5 493.833,347.5 492.5,347.5C 488.796,347.276 485.129,347.11 481.5,347C 471.833,358 462.167,369 452.5,380C 462.638,390.625 472.304,401.625 481.5,413C 501.938,411.645 522.271,409.145 542.5,405.5C 543.167,405.5 543.833,405.5 544.5,405.5C 545.5,405.5 546.5,405.5 547.5,405.5C 546.96,408.865 546.294,412.198 545.5,415.5C 543.901,415.232 542.568,415.566 541.5,416.5C 539.708,416.366 538.042,416.699 536.5,417.5C 521.144,419.281 505.811,421.281 490.5,423.5C 501.273,436.925 511.606,450.592 521.5,464.5C 524.083,467.997 526.416,471.664 528.5,475.5C 529.954,477.571 531.287,479.738 532.5,482C 530.987,485.665 528.653,488.498 525.5,490.5C 525.167,489.833 524.833,489.167 524.5,488.5C 510.738,466.397 495.404,445.397 478.5,425.5C 476.5,425.167 474.5,424.833 472.5,424.5C 453.865,426.13 435.198,427.13 416.5,427.5C 414.167,425.5 411.833,423.5 409.5,421.5C 420.128,409.703 430.961,398.036 442,386.5C 444.144,381.742 444.977,376.742 444.5,371.5C 448.067,369.443 451.234,366.777 454,363.5C 459.021,357.98 463.854,352.314 468.5,346.5C 451.915,344.375 435.248,343.042 418.5,342.5C 415.94,340.727 413.607,338.727 411.5,336.5C 411.738,334.596 412.738,333.262 414.5,332.5C 435.857,333.224 457.19,334.057 478.5,335C 491.464,319.217 503.797,303.051 515.5,286.5 Z"/></g>
<g><path style="opacity:1" fill="#b5a589" d="M 249.5,294.5 C 250.167,295.833 250.833,297.167 251.5,298.5C 251.62,300.199 251.954,301.865 252.5,303.5C 251.164,311.192 249.664,318.858 248,326.5C 243.552,332.001 239.719,337.334 236.5,342.5C 234.565,343.15 232.565,343.483 230.5,343.5C 232.749,339.402 235.249,335.402 238,331.5C 238.393,328.367 239.226,325.367 240.5,322.5C 239.212,318.712 240.046,315.379 243,312.5C 243.452,309.123 244.118,305.789 245,302.5C 246.584,299.734 248.084,297.067 249.5,294.5 Z"/></g>
<g><path style="opacity:1" fill="#fcfcfb" d="M 252.5,281.5 C 265.154,300.003 278.82,317.836 293.5,335C 314.427,333.38 335.427,332.547 356.5,332.5C 358.167,333.833 359.833,335.167 361.5,336.5C 359.577,339.603 357.41,342.603 355,345.5C 346.303,353.863 337.969,362.53 330,371.5C 326.506,376.784 325.672,382.451 327.5,388.5C 325.692,387.683 324.192,388.35 323,390.5C 316.354,398.647 309.521,406.647 302.5,414.5C 319.787,416.225 337.121,417.225 354.5,417.5C 357.109,418.443 359.109,420.11 360.5,422.5C 359.167,424.5 357.5,426.167 355.5,427.5C 334.762,427.659 314.095,426.826 293.5,425C 276.248,445.009 260.581,466.175 246.5,488.5C 245.522,488.023 244.689,487.357 244,486.5C 242.121,484.473 240.954,482.14 240.5,479.5C 241.167,478.167 241.833,476.833 242.5,475.5C 248.218,467.777 253.551,459.777 258.5,451.5C 259.5,451.167 260.167,450.5 260.5,449.5C 267.495,441.161 274.161,432.495 280.5,423.5C 264.388,421.764 248.388,419.431 232.5,416.5C 231.833,416.5 231.167,416.5 230.5,416.5C 229.432,415.566 228.099,415.232 226.5,415.5C 226.099,412.252 225.432,409.085 224.5,406C 224.728,405.601 225.062,405.435 225.5,405.5C 246.693,409.35 268.027,411.85 289.5,413C 299.167,402 308.833,391 318.5,380C 308.833,369 299.167,358 289.5,347C 280.829,347.22 272.162,347.887 263.5,349C 247.418,351.05 231.418,353.55 215.5,356.5C 216.207,353.214 216.54,349.881 216.5,346.5C 221.152,345.313 225.819,344.313 230.5,343.5C 232.565,343.483 234.565,343.15 236.5,342.5C 251.146,340.371 265.813,338.371 280.5,336.5C 270.778,323.791 261.111,311.124 251.5,298.5C 250.833,297.167 250.167,295.833 249.5,294.5C 248.075,293.078 247.075,291.411 246.5,289.5C 248.5,286.833 250.5,284.167 252.5,281.5 Z"/></g>
<g><path style="opacity:1" fill="#b6a68a" d="M 540.5,343.5 C 538.585,343.784 536.919,343.451 535.5,342.5C 536.391,338.81 536.058,335.143 534.5,331.5C 529.382,333.506 524.382,336.006 519.5,339C 517.866,339.494 516.199,339.66 514.5,339.5C 507.492,338.916 500.492,338.249 493.5,337.5C 493.692,333.898 495.026,330.898 497.5,328.5C 500.385,329.545 502.552,331.545 504,334.5C 509.375,331.364 515.208,329.864 521.5,330C 524.639,328.272 527.972,327.106 531.5,326.5C 532.705,324.141 532.372,321.974 530.5,320C 532.852,315.015 531.352,312.182 526,311.5C 523.865,312.127 521.698,312.627 519.5,313C 518.809,314.067 518.309,315.234 518,316.5C 514.257,315.859 510.423,315.859 506.5,316.5C 509.167,312.833 511.833,309.167 514.5,305.5C 522.068,303.823 529.734,302.657 537.5,302C 544.101,298.804 550.935,297.304 558,297.5C 558.684,298.784 558.517,299.951 557.5,301C 553.605,302.983 549.605,303.649 545.5,303C 542.834,305.335 539.834,307.169 536.5,308.5C 535.353,310.765 535.186,313.098 536,315.5C 537.276,320.446 538.776,325.28 540.5,330C 538.787,334.267 539.454,338.101 542.5,341.5C 542.253,342.713 541.586,343.38 540.5,343.5 Z"/></g>
<g><path style="opacity:1" fill="#17608e" d="M 370.5,297.5 C 375.806,302.14 380.806,307.14 385.5,312.5C 378.005,320.162 370.672,327.996 363.5,336C 362.906,336.464 362.239,336.631 361.5,336.5C 359.833,335.167 358.167,333.833 356.5,332.5C 353.5,328.833 350.167,325.5 346.5,322.5C 353.799,313.533 361.799,305.2 370.5,297.5 Z"/></g>
<g><path style="opacity:1" fill="#e1d9c7" d="M 251.5,298.5 C 261.111,311.124 270.778,323.791 280.5,336.5C 265.813,338.371 251.146,340.371 236.5,342.5C 239.719,337.334 243.552,332.001 248,326.5C 249.664,318.858 251.164,311.192 252.5,303.5C 251.954,301.865 251.62,300.199 251.5,298.5 Z"/></g>
<g><path style="opacity:1" fill="#b6a68a" d="M 221.5,308.5 C 222.497,308.47 223.164,308.97 223.5,310C 224.55,313.455 224.717,316.955 224,320.5C 219.524,323.094 217.024,321.594 216.5,316C 216.831,312.52 218.498,310.02 221.5,308.5 Z"/></g>
<g><path style="opacity:1" fill="#e0d8c6" d="M 497.5,328.5 C 500.025,324.104 503.025,320.104 506.5,316.5C 510.423,315.859 514.257,315.859 518,316.5C 518.309,315.234 518.809,314.067 519.5,313C 521.698,312.627 523.865,312.127 526,311.5C 531.352,312.182 532.852,315.015 530.5,320C 532.372,321.974 532.705,324.141 531.5,326.5C 527.972,327.106 524.639,328.272 521.5,330C 515.208,329.864 509.375,331.364 504,334.5C 502.552,331.545 500.385,329.545 497.5,328.5 Z"/></g>
<g><path style="opacity:1" fill="#b6a68a" d="M 210.5,328.5 C 211.5,328.5 212.5,328.5 213.5,328.5C 215.162,334.455 215.496,340.455 214.5,346.5C 213.264,347.246 211.93,347.579 210.5,347.5C 211.464,343.506 210.798,339.672 208.5,336C 209.249,333.503 209.916,331.003 210.5,328.5 Z"/></g>
<g><path style="opacity:1" fill="#e0d8c7" d="M 535.5,342.5 C 528.316,341.856 521.316,340.856 514.5,339.5C 516.199,339.66 517.866,339.494 519.5,339C 524.382,336.006 529.382,333.506 534.5,331.5C 536.058,335.143 536.391,338.81 535.5,342.5 Z"/></g>
<g><path style="opacity:1" fill="#17608e" d="M 411.5,336.5 C 413.607,338.727 415.94,340.727 418.5,342.5C 421.5,345.833 424.5,349.167 427.5,352.5C 419.86,360.806 411.86,368.806 403.5,376.5C 398.167,371.5 392.833,366.5 387.5,361.5C 394.848,352.486 402.848,344.153 411.5,336.5 Z"/></g>
<g><path style="opacity:1" fill="#e1d9c8" d="M 332.5,342.5 C 339.841,342.334 347.174,342.5 354.5,343C 344.636,352.53 335.136,362.363 326,372.5C 317.607,363.944 309.774,354.944 302.5,345.5C 312.684,344.832 322.684,343.832 332.5,342.5 Z"/></g>
<g><path style="opacity:1" fill="#e0d8c7" d="M 418.5,342.5 C 435.248,343.042 451.915,344.375 468.5,346.5C 463.854,352.314 459.021,357.98 454,363.5C 451.234,366.777 448.067,369.443 444.5,371.5C 443.872,368.91 442.705,366.577 441,364.5C 436.331,360.663 431.831,356.663 427.5,352.5C 424.5,349.167 421.5,345.833 418.5,342.5 Z"/></g>
<g><path style="opacity:1" fill="#e0d8c6" d="M 492.5,347.5 C 492.692,352.13 492.025,356.63 490.5,361C 490.388,362.662 491.054,363.829 492.5,364.5C 493.927,361.91 496.093,360.244 499,359.5C 500.237,355.94 500.737,352.273 500.5,348.5C 498.901,348.768 497.568,348.434 496.5,347.5C 507.897,348.841 519.23,350.508 530.5,352.5C 528.713,356.98 527.547,361.647 527,366.5C 526.043,369.022 524.543,371.189 522.5,373C 523.308,373.308 523.975,373.808 524.5,374.5C 523.271,375.281 521.938,375.781 520.5,376C 518.333,379.197 515.833,382.03 513,384.5C 512.333,386.5 511.667,388.5 511,390.5C 506.559,392.387 504.393,395.72 504.5,400.5C 507.114,400.723 508.781,399.556 509.5,397C 510.938,396.781 512.271,396.281 513.5,395.5C 520,387.167 526.5,378.833 533,370.5C 534.42,365.985 536.587,361.985 539.5,358.5C 540.971,359.381 541.804,360.714 542,362.5C 542.768,372.324 544.268,381.99 546.5,391.5C 546.328,396.507 544.995,401.174 542.5,405.5C 522.271,409.145 501.938,411.645 481.5,413C 472.304,401.625 462.638,390.625 452.5,380C 462.167,369 471.833,358 481.5,347C 485.129,347.11 488.796,347.276 492.5,347.5 Z"/></g>
<g><path style="opacity:1" fill="#b6a68a" d="M 492.5,347.5 C 493.833,347.5 495.167,347.5 496.5,347.5C 497.568,348.434 498.901,348.768 500.5,348.5C 500.737,352.273 500.237,355.94 499,359.5C 496.093,360.244 493.927,361.91 492.5,364.5C 491.054,363.829 490.388,362.662 490.5,361C 492.025,356.63 492.692,352.13 492.5,347.5 Z"/></g>
<g><path style="opacity:1" fill="#1b77a8" d="M 427.5,352.5 C 431.831,356.663 436.331,360.663 441,364.5C 442.705,366.577 443.872,368.91 444.5,371.5C 444.977,376.742 444.144,381.742 442,386.5C 430.961,398.036 420.128,409.703 409.5,421.5C 401.493,429.507 393.827,437.841 386.5,446.5C 379.064,452.598 372.73,459.598 367.5,467.5C 366.761,467.369 366.094,467.536 365.5,468C 358.328,476.004 350.995,483.838 343.5,491.5C 341.246,490.585 339.246,489.252 337.5,487.5C 335.781,484.781 333.447,482.781 330.5,481.5C 325.364,474.906 324.197,467.572 327,459.5C 336.337,448.665 345.837,437.998 355.5,427.5C 357.5,426.167 359.167,424.5 360.5,422.5C 368.472,414.193 376.472,405.86 384.5,397.5C 391.197,390.805 397.53,383.805 403.5,376.5C 411.86,368.806 419.86,360.806 427.5,352.5 Z"/></g>
<g><path style="opacity:1" fill="#b5a689" d="M 530.5,352.5 C 537.496,353.833 544.496,355.166 551.5,356.5C 552.511,358.402 552.678,360.402 552,362.5C 550.764,363.399 549.93,364.566 549.5,366C 550.944,368.449 552.778,370.615 555,372.5C 554.999,376.578 555.166,380.578 555.5,384.5C 555.153,387.528 553.986,390.194 552,392.5C 551.374,394.713 551.541,396.88 552.5,399C 551.368,400.765 550.368,402.598 549.5,404.5C 547.585,404.216 545.919,404.549 544.5,405.5C 543.833,405.5 543.167,405.5 542.5,405.5C 544.995,401.174 546.328,396.507 546.5,391.5C 544.268,381.99 542.768,372.324 542,362.5C 541.804,360.714 540.971,359.381 539.5,358.5C 536.587,361.985 534.42,365.985 533,370.5C 526.5,378.833 520,387.167 513.5,395.5C 512.271,396.281 510.938,396.781 509.5,397C 508.781,399.556 507.114,400.723 504.5,400.5C 504.393,395.72 506.559,392.387 511,390.5C 511.667,388.5 512.333,386.5 513,384.5C 515.833,382.03 518.333,379.197 520.5,376C 521.938,375.781 523.271,375.281 524.5,374.5C 523.975,373.808 523.308,373.308 522.5,373C 524.543,371.189 526.043,369.022 527,366.5C 527.547,361.647 528.713,356.98 530.5,352.5 Z"/></g>
<g><path style="opacity:1" fill="#e4dfbf" d="M 192.5,396.5 C 193.244,400.119 193.577,403.785 193.5,407.5C 191.883,406.962 190.216,406.629 188.5,406.5C 178.901,402.948 170.068,397.948 162,391.5C 154.698,380.593 156.532,371.426 167.5,364C 177.577,357.953 188.244,353.62 199.5,351C 198.136,354.683 197.469,358.516 197.5,362.5C 186.228,364.719 176.395,369.719 168,377.5C 167.333,379.167 167.333,380.833 168,382.5C 175.116,389.137 183.282,393.804 192.5,396.5 Z"/></g>
<g><path style="opacity:1" fill="#e4dfbf" d="M 576.5,407.5 C 576.342,404.098 576.676,400.764 577.5,397.5C 584.968,394.499 592.302,390.999 599.5,387C 604.313,382.959 604.646,378.625 600.5,374C 594.885,370.178 588.885,367.011 582.5,364.5C 580.61,361.048 580.11,357.382 581,353.5C 592.355,356.842 602.355,362.509 611,370.5C 616.585,380.209 614.752,388.375 605.5,395C 596.489,400.843 586.822,405.009 576.5,407.5 Z"/></g>
<g><path style="opacity:1" fill="#b5a689" d="M 213.5,357.5 C 215.199,357.34 216.866,357.506 218.5,358C 213.837,361.83 209.503,365.997 205.5,370.5C 201.928,371.706 198.262,372.373 194.5,372.5C 194.351,371.448 194.517,370.448 195,369.5C 199.416,367.088 203.249,363.922 206.5,360C 208.927,359.098 211.26,358.264 213.5,357.5 Z"/></g>
<g><path style="opacity:1" fill="#ddd7c6" d="M 387.5,361.5 C 392.833,366.5 398.167,371.5 403.5,376.5C 397.53,383.805 391.197,390.805 384.5,397.5C 379.167,392.5 373.833,387.5 368.5,382.5C 373.73,374.598 380.064,367.598 387.5,361.5 Z"/></g>
<g><path style="opacity:1" fill="#17608e" d="M 368.5,382.5 C 373.833,387.5 379.167,392.5 384.5,397.5C 376.472,405.86 368.472,414.193 360.5,422.5C 359.109,420.11 357.109,418.443 354.5,417.5C 351.167,413.833 347.833,410.167 344.5,406.5C 351.995,398.838 359.328,391.004 366.5,383C 367.094,382.536 367.761,382.369 368.5,382.5 Z"/></g>
<g><path style="opacity:1" fill="#e0d9c7" d="M 327.5,388.5 C 331.809,395.808 337.475,401.808 344.5,406.5C 347.833,410.167 351.167,413.833 354.5,417.5C 337.121,417.225 319.787,416.225 302.5,414.5C 309.521,406.647 316.354,398.647 323,390.5C 324.192,388.35 325.692,387.683 327.5,388.5 Z"/></g>
<g><path style="opacity:1" fill="#e1d9c8" d="M 444.5,388.5 C 447.731,390.22 450.564,392.553 453,395.5C 458.354,401.353 463.52,407.353 468.5,413.5C 467.624,414.251 466.624,414.751 465.5,415C 449.517,416.393 433.517,417.06 417.5,417C 426.339,407.328 435.339,397.828 444.5,388.5 Z"/></g>
<g><path style="opacity:1" fill="#eeebdc" d="M 192.5,396.5 C 203.574,399.641 214.574,402.641 225.5,405.5C 225.062,405.435 224.728,405.601 224.5,406C 225.432,409.085 226.099,412.252 226.5,415.5C 228.099,415.232 229.432,415.566 230.5,416.5C 223.62,418.605 216.954,421.272 210.5,424.5C 209.833,424.333 209.167,424.167 208.5,424C 210.323,420.701 211.656,417.201 212.5,413.5C 210.827,411.914 208.827,411.247 206.5,411.5C 204.626,410.715 202.626,410.048 200.5,409.5C 198.106,408.985 195.772,408.319 193.5,407.5C 193.577,403.785 193.244,400.119 192.5,396.5 Z"/></g>
<g><path style="opacity:1" fill="#f4f2e7" d="M 577.5,397.5 C 576.676,400.764 576.342,404.098 576.5,407.5C 566.483,411.254 556.15,413.921 545.5,415.5C 546.294,412.198 546.96,408.865 547.5,405.5C 546.5,405.5 545.5,405.5 544.5,405.5C 545.919,404.549 547.585,404.216 549.5,404.5C 558.712,401.741 568.045,399.408 577.5,397.5 Z"/></g>
<g><path style="opacity:1" fill="#b7a88b" d="M 188.5,406.5 C 190.216,406.629 191.883,406.962 193.5,407.5C 195.772,408.319 198.106,408.985 200.5,409.5C 194.322,410.817 187.988,410.817 181.5,409.5C 183.071,406.907 185.404,405.907 188.5,406.5 Z"/></g>
<g><path style="opacity:1" fill="#b5a589" d="M 206.5,411.5 C 208.827,411.247 210.827,411.914 212.5,413.5C 211.656,417.201 210.323,420.701 208.5,424C 209.167,424.167 209.833,424.333 210.5,424.5C 216.954,421.272 223.62,418.605 230.5,416.5C 231.167,416.5 231.833,416.5 232.5,416.5C 233.749,418.829 233.082,420.662 230.5,422C 223.759,425.624 216.925,428.791 210,431.5C 208.959,434.636 209.793,437.136 212.5,439C 218.167,439.667 223.833,439.667 229.5,439C 232.3,437.768 235.3,437.101 238.5,437C 240.739,434.386 243.405,433.886 246.5,435.5C 250.945,430.947 256.279,429.447 262.5,431C 255.146,433.509 248.146,436.843 241.5,441C 235.739,442.014 230.073,443.348 224.5,445C 223.667,445.833 222.833,446.667 222,447.5C 221.304,451.588 220.637,455.588 220,459.5C 229.897,457.891 239.731,455.057 249.5,451C 252.859,450.229 256.192,449.395 259.5,448.5C 260.107,448.624 260.44,448.957 260.5,449.5C 260.167,450.5 259.5,451.167 258.5,451.5C 252.863,454.401 246.863,456.567 240.5,458C 235.779,461.027 230.779,463.527 225.5,465.5C 224.416,466.665 223.583,467.998 223,469.5C 222.886,474.2 221.719,478.534 219.5,482.5C 227.01,479.657 234.677,477.324 242.5,475.5C 241.833,476.833 241.167,478.167 240.5,479.5C 235.855,482.145 232.188,485.812 229.5,490.5C 228.311,491.429 226.978,491.762 225.5,491.5C 225.799,486.057 224.465,485.39 221.5,489.5C 223.267,491.89 225.6,493.557 228.5,494.5C 229.452,496.045 229.785,497.712 229.5,499.5C 226.679,503.767 224.512,508.433 223,513.5C 222,514.167 221,514.833 220,515.5C 220.695,518.846 220.529,522.18 219.5,525.5C 216.831,527.087 213.831,527.921 210.5,528C 205.857,534.822 199.857,539.988 192.5,543.5C 190.249,542.135 188.249,542.469 186.5,544.5C 181.634,542.076 181.634,540.243 186.5,539C 190.866,534.299 195.533,529.966 200.5,526C 208.871,517.297 216.871,508.297 224.5,499C 222.517,497.111 220.184,495.778 217.5,495C 213.805,494.682 210.138,494.182 206.5,493.5C 202.201,494.542 197.868,494.709 193.5,494C 191.926,492.174 191.093,490.007 191,487.5C 187.682,485.865 186.182,483.199 186.5,479.5C 187.529,476.486 188.529,473.486 189.5,470.5C 187.833,470.5 186.167,470.5 184.5,470.5C 183.824,464.816 183.324,459.149 183,453.5C 184.333,450.833 186.333,448.833 189,447.5C 190.746,443.673 192.746,440.007 195,436.5C 197.963,434.539 200.629,432.206 203,429.5C 202.468,425.243 202.468,420.909 203,416.5C 203.549,414.24 204.716,412.574 206.5,411.5 Z"/></g>
<g><path style="opacity:1" fill="#b6a68a" d="M 541.5,416.5 C 542.675,416.281 543.675,416.614 544.5,417.5C 540.787,427.872 534.454,436.206 525.5,442.5C 525.167,442.167 524.833,441.833 524.5,441.5C 526.75,437.332 529.25,433.332 532,429.5C 534.364,425.781 535.864,421.781 536.5,417.5C 538.042,416.699 539.708,416.366 541.5,416.5 Z"/></g>
<g><path style="opacity:1" fill="#e0d8c6" d="M 232.5,416.5 C 248.388,419.431 264.388,421.764 280.5,423.5C 274.161,432.495 267.495,441.161 260.5,449.5C 260.44,448.957 260.107,448.624 259.5,448.5C 256.192,449.395 252.859,450.229 249.5,451C 239.731,455.057 229.897,457.891 220,459.5C 220.637,455.588 221.304,451.588 222,447.5C 222.833,446.667 223.667,445.833 224.5,445C 230.073,443.348 235.739,442.014 241.5,441C 248.146,436.843 255.146,433.509 262.5,431C 256.279,429.447 250.945,430.947 246.5,435.5C 243.405,433.886 240.739,434.386 238.5,437C 235.3,437.101 232.3,437.768 229.5,439C 223.833,439.667 218.167,439.667 212.5,439C 209.793,437.136 208.959,434.636 210,431.5C 216.925,428.791 223.759,425.624 230.5,422C 233.082,420.662 233.749,418.829 232.5,416.5 Z"/></g>
<g><path style="opacity:1" fill="#17608f" d="M 409.5,421.5 C 411.833,423.5 414.167,425.5 416.5,427.5C 419.167,430.5 421.833,433.5 424.5,436.5C 417.173,445.159 409.507,453.493 401.5,461.5C 396.194,456.86 391.194,451.86 386.5,446.5C 393.827,437.841 401.493,429.507 409.5,421.5 Z"/></g>
<g><path style="opacity:1" fill="#e0d8c6" d="M 524.5,488.5 C 523.733,489.172 523.066,490.005 522.5,491C 515.273,491.579 508.273,493.079 501.5,495.5C 501.826,492.689 502.659,490.022 504,487.5C 504.498,484.183 504.665,480.85 504.5,477.5C 502.027,477.799 499.86,478.799 498,480.5C 496.739,480.241 495.739,479.574 495,478.5C 494.598,479.872 494.098,481.205 493.5,482.5C 494.142,488.583 495.142,494.583 496.5,500.5C 499.022,500.128 501.022,500.961 502.5,503C 508.001,504.22 513.001,503.387 517.5,500.5C 520.686,502.434 524.019,503.768 527.5,504.5C 527.5,505.5 527.5,506.5 527.5,507.5C 526.325,507.281 525.325,507.614 524.5,508.5C 524.856,511.115 526.189,512.948 528.5,514C 525.203,518.489 526.203,521.489 531.5,523C 529.941,523.98 528.274,524.813 526.5,525.5C 525.801,528.31 524.801,530.977 523.5,533.5C 520.376,531.726 517.042,530.393 513.5,529.5C 504.574,525.034 495.907,520.034 487.5,514.5C 469.457,502.811 452.124,490.144 435.5,476.5C 443.352,469.093 445.185,460.426 441,450.5C 436.5,446 432,441.5 427.5,437C 426.552,436.517 425.552,436.351 424.5,436.5C 421.833,433.5 419.167,430.5 416.5,427.5C 435.198,427.13 453.865,426.13 472.5,424.5C 474.5,424.833 476.5,425.167 478.5,425.5C 495.404,445.397 510.738,466.397 524.5,488.5 Z"/></g>
<g><path style="opacity:1" fill="#1b77a8" d="M 424.5,436.5 C 425.552,436.351 426.552,436.517 427.5,437C 432,441.5 436.5,446 441,450.5C 445.185,460.426 443.352,469.093 435.5,476.5C 432.833,478.5 430.5,480.833 428.5,483.5C 421.492,490.508 414.826,497.842 408.5,505.5C 399.799,513.2 391.799,521.533 384.5,530.5C 371.367,543.801 358.367,557.301 345.5,571C 338.912,567.731 333.412,562.897 329,556.5C 327.508,551.589 327.174,546.589 328,541.5C 335.555,530.939 344.222,521.272 354,512.5C 355.75,510.266 357.25,507.932 358.5,505.5C 363.406,502.102 367.906,498.102 372,493.5C 374.63,489.868 377.63,486.535 381,483.5C 381.483,482.552 381.649,481.552 381.5,480.5C 382.117,480.611 382.617,480.944 383,481.5C 389.005,474.663 395.171,467.996 401.5,461.5C 409.507,453.493 417.173,445.159 424.5,436.5 Z"/></g>
<g><path style="opacity:1" fill="#e0d7c5" d="M 200.5,441.5 C 203.064,441.979 205.564,442.645 208,443.5C 211.075,443.368 213.742,444.701 216,447.5C 216.232,451.555 216.732,455.555 217.5,459.5C 217.023,460.478 216.357,461.311 215.5,462C 207.248,463.648 198.915,464.815 190.5,465.5C 190.167,465 189.833,464.5 189.5,464C 192.06,455.718 195.726,448.218 200.5,441.5 Z"/></g>
<g><path style="opacity:1" fill="#ddd7c6" d="M 386.5,446.5 C 391.194,451.86 396.194,456.86 401.5,461.5C 395.171,467.996 389.005,474.663 383,481.5C 382.617,480.944 382.117,480.611 381.5,480.5C 376.859,476.195 372.193,471.861 367.5,467.5C 372.73,459.598 379.064,452.598 386.5,446.5 Z"/></g>
<g><path style="opacity:1" fill="#b6a68a" d="M 528.5,475.5 C 526.416,471.664 524.083,467.997 521.5,464.5C 521.962,463.12 522.962,462.453 524.5,462.5C 525.986,462.897 527.486,463.23 529,463.5C 531.951,462.086 535.118,461.253 538.5,461C 540.556,458.556 543.056,456.723 546,455.5C 546.333,453.833 546.667,452.167 547,450.5C 554.941,457.998 553.441,462.998 542.5,465.5C 542.167,465.167 541.833,464.833 541.5,464.5C 542.167,463.5 542.833,462.5 543.5,461.5C 542.998,460.479 542.332,460.312 541.5,461C 540.308,462.912 539.308,464.912 538.5,467C 535.366,469.152 532.032,470.818 528.5,472C 530.603,472.853 530.603,474.02 528.5,475.5 Z"/></g>
<g><path style="opacity:1" fill="#e0d8c5" d="M 258.5,451.5 C 253.551,459.777 248.218,467.777 242.5,475.5C 234.677,477.324 227.01,479.657 219.5,482.5C 221.719,478.534 222.886,474.2 223,469.5C 223.583,467.998 224.416,466.665 225.5,465.5C 230.779,463.527 235.779,461.027 240.5,458C 246.863,456.567 252.863,454.401 258.5,451.5 Z"/></g>
<g><path style="opacity:1" fill="#dfd7c5" d="M 212.5,465.5 C 213.833,465.5 215.167,465.5 216.5,465.5C 216.567,467.401 216.233,469.234 215.5,471C 216.167,472.333 216.833,473.667 217.5,475C 216.333,477.833 215.167,480.667 214,483.5C 209.424,486.025 204.591,488.025 199.5,489.5C 198.228,489.43 197.062,489.097 196,488.5C 195.13,483.76 193.964,479.094 192.5,474.5C 193.013,469.13 194.847,468.463 198,472.5C 201.405,470.147 205.238,468.98 209.5,469C 210.71,467.961 211.71,466.794 212.5,465.5 Z"/></g>
<g><path style="opacity:1" fill="#175f8e" d="M 367.5,467.5 C 372.193,471.861 376.859,476.195 381.5,480.5C 381.649,481.552 381.483,482.552 381,483.5C 377.63,486.535 374.63,489.868 372,493.5C 367.906,498.102 363.406,502.102 358.5,505.5C 353.474,500.805 348.474,496.139 343.5,491.5C 350.995,483.838 358.328,476.004 365.5,468C 366.094,467.536 366.761,467.369 367.5,467.5 Z"/></g>
<g><path style="opacity:1" fill="#fcfcfa" d="M 435.5,476.5 C 452.124,490.144 469.457,502.811 487.5,514.5C 485.738,517.737 483.071,520.071 479.5,521.5C 461.347,510.342 444.347,497.676 428.5,483.5C 430.5,480.833 432.833,478.5 435.5,476.5 Z"/></g>
<g><path style="opacity:1" fill="#b6a68a" d="M 524.5,488.5 C 524.833,489.167 525.167,489.833 525.5,490.5C 527.93,495.037 530.597,499.37 533.5,503.5C 534.447,505.734 535.114,508.068 535.5,510.5C 533.387,516.684 532.554,523.017 533,529.5C 533.972,531.305 535.139,532.972 536.5,534.5C 532.057,535.737 527.724,535.403 523.5,533.5C 524.801,530.977 525.801,528.31 526.5,525.5C 528.274,524.813 529.941,523.98 531.5,523C 526.203,521.489 525.203,518.489 528.5,514C 526.189,512.948 524.856,511.115 524.5,508.5C 525.325,507.614 526.325,507.281 527.5,507.5C 527.5,506.5 527.5,505.5 527.5,504.5C 524.019,503.768 520.686,502.434 517.5,500.5C 513.001,503.387 508.001,504.22 502.5,503C 501.022,500.961 499.022,500.128 496.5,500.5C 495.142,494.583 494.142,488.583 493.5,482.5C 494.098,481.205 494.598,479.872 495,478.5C 495.739,479.574 496.739,480.241 498,480.5C 499.86,478.799 502.027,477.799 504.5,477.5C 504.665,480.85 504.498,484.183 504,487.5C 502.659,490.022 501.826,492.689 501.5,495.5C 508.273,493.079 515.273,491.579 522.5,491C 523.066,490.005 523.733,489.172 524.5,488.5 Z"/></g>
<g><path style="opacity:1" fill="#fafaf6" d="M 330.5,481.5 C 333.447,482.781 335.781,484.781 337.5,487.5C 320.833,502.585 302.666,515.585 283,526.5C 279.635,525.563 276.801,523.729 274.5,521C 293.722,508.561 312.389,495.395 330.5,481.5 Z"/></g>
<g><path style="opacity:1" fill="#b6a68a" d="M 540.5,494.5 C 540.167,494.5 539.833,494.5 539.5,494.5C 539.249,492.83 538.582,491.33 537.5,490C 540.833,489.333 544.167,489.333 547.5,490C 546.304,490.654 546.304,491.154 547.5,491.5C 548.833,490.167 550.167,490.167 551.5,491.5C 553.662,489.98 555.995,488.98 558.5,488.5C 558.719,489.675 558.386,490.675 557.5,491.5C 553.385,492.723 549.718,494.723 546.5,497.5C 544.757,495.962 542.757,494.962 540.5,494.5 Z"/></g>
<g><path style="opacity:1" fill="#e3debe" d="M 229.5,499.5 C 229.351,500.552 229.517,501.552 230,502.5C 231.961,504.928 233.794,507.428 235.5,510C 234.257,513.236 232.924,516.403 231.5,519.5C 231.5,520.167 231.5,520.833 231.5,521.5C 227.117,532.718 230.783,537.218 242.5,535C 248.015,533.662 253.348,531.829 258.5,529.5C 262.376,530.709 265.376,533.043 267.5,536.5C 267.5,537.167 267.167,537.5 266.5,537.5C 259.377,540.486 252.044,542.986 244.5,545C 227.702,548.964 219.369,542.464 219.5,525.5C 220.529,522.18 220.695,518.846 220,515.5C 221,514.833 222,514.167 223,513.5C 224.512,508.433 226.679,503.767 229.5,499.5 Z"/></g>
<g><path style="opacity:1" fill="#b5a689" d="M 240.5,499.5 C 245.882,500.286 251.216,501.286 256.5,502.5C 256.5,503.833 256.5,505.167 256.5,506.5C 250.137,506.407 243.804,506.74 237.5,507.5C 237.94,504.62 238.94,501.954 240.5,499.5 Z"/></g>
<g><path style="opacity:1" fill="#e3ddbf" d="M 539.5,494.5 C 539.833,494.5 540.167,494.5 540.5,494.5C 544.814,503.473 548.314,512.807 551,522.5C 551.499,526.821 551.666,531.154 551.5,535.5C 549.975,537.216 548.975,539.216 548.5,541.5C 539.659,547.448 530.326,548.115 520.5,543.5C 515.489,541.661 510.822,539.328 506.5,536.5C 508.64,533.939 510.973,531.605 513.5,529.5C 517.042,530.393 520.376,531.726 523.5,533.5C 527.724,535.403 532.057,535.737 536.5,534.5C 535.139,532.972 533.972,531.305 533,529.5C 532.554,523.017 533.387,516.684 535.5,510.5C 535.114,508.068 534.447,505.734 533.5,503.5C 536.318,501.021 538.318,498.021 539.5,494.5 Z"/></g>
<g><path style="opacity:1" fill="#18608e" d="M 408.5,505.5 C 414.51,510.346 419.677,516.013 424,522.5C 424.81,527.257 424.476,531.924 423,536.5C 418.5,541.667 414,546.833 409.5,552C 408.833,552.667 408.167,552.667 407.5,552C 399.662,544.995 391.996,537.828 384.5,530.5C 391.799,521.533 399.799,513.2 408.5,505.5 Z"/></g>
<g><path style="opacity:1" fill="#b6a68a" d="M 231.5,519.5 C 236.435,519.197 241.101,520.03 245.5,522C 242.961,523.047 240.295,523.547 237.5,523.5C 235.048,523.461 233.048,522.794 231.5,521.5C 231.5,520.833 231.5,520.167 231.5,519.5 Z"/></g>
<g><path style="opacity:1" fill="#d8d3c4" d="M 113.5,525.5 C 115.5,525.5 117.5,525.5 119.5,525.5C 119.509,527.308 119.009,528.975 118,530.5C 109.333,541.167 100.667,551.833 92,562.5C 89.563,565.376 88.2297,568.71 88,572.5C 83.9139,565.997 80.0806,559.33 76.5,552.5C 77.0016,551.479 77.6683,551.312 78.5,552C 81.2897,556.554 84.123,556.387 87,551.5C 87.8498,549.99 88.6831,548.49 89.5,547C 87.6827,542.364 85.3493,538.03 82.5,534C 79.1064,533.248 75.773,533.415 72.5,534.5C 71.2309,536.695 71.2309,538.861 72.5,541C 71.8333,541.667 71.1667,541.667 70.5,541C 67.3918,537.294 65.5584,533.127 65,528.5C 67.9276,530.038 71.0942,530.704 74.5,530.5C 87.7122,529.348 100.712,527.681 113.5,525.5 Z"/></g>
<g><path style="opacity:1" fill="#eeead7" d="M 487.5,514.5 C 495.907,520.034 504.574,525.034 513.5,529.5C 510.973,531.605 508.64,533.939 506.5,536.5C 496.729,532.784 487.729,527.784 479.5,521.5C 483.071,520.071 485.738,517.737 487.5,514.5 Z"/></g>
<g><path style="opacity:1" fill="#b7a78b" d="M 548.5,541.5 C 548.975,539.216 549.975,537.216 551.5,535.5C 557.135,533.13 562.468,530.297 567.5,527C 569.259,526.202 570.926,526.369 572.5,527.5C 571.376,528.914 570.376,530.414 569.5,532C 563.724,535.636 557.891,539.136 552,542.5C 550.862,542.011 549.695,541.678 548.5,541.5 Z"/></g>
<g><path style="opacity:1" fill="#b5a689" d="M 309.5,599.5 C 308.654,602.548 307.654,605.548 306.5,608.5C 304.33,609.768 302.163,609.768 300,608.5C 298.471,609.729 297.304,611.229 296.5,613C 292.184,614.563 287.851,616.063 283.5,617.5C 279.061,615.862 274.394,615.029 269.5,615C 268.643,614.311 267.977,613.478 267.5,612.5C 269.679,611.243 271.679,609.743 273.5,608C 277.965,606.851 282.132,605.018 286,602.5C 286.595,601.101 286.428,599.768 285.5,598.5C 290.59,592.542 291.59,585.876 288.5,578.5C 288.709,577.914 289.043,577.414 289.5,577C 287.153,576.154 285.32,574.654 284,572.5C 281.931,573.264 279.764,573.764 277.5,574C 280.063,574.763 280.063,575.263 277.5,575.5C 275.356,574.312 273.189,574.312 271,575.5C 266.501,573.864 266.667,572.031 271.5,570C 277.501,569.6 282.501,567.266 286.5,563C 285.874,562.25 285.374,561.416 285,560.5C 284.474,553.829 283.974,547.163 283.5,540.5C 279.453,540.305 275.453,540.638 271.5,541.5C 269.239,540.905 267.572,539.571 266.5,537.5C 267.167,537.5 267.5,537.167 267.5,536.5C 279.71,535.065 291.71,532.565 303.5,529C 305.579,528.192 307.579,528.359 309.5,529.5C 306.925,531.421 304.258,533.255 301.5,535C 298.5,535.333 295.5,535.667 292.5,536C 290.819,538.344 289.152,540.677 287.5,543C 289.388,544.394 290.721,546.227 291.5,548.5C 290.752,554.19 290.418,559.857 290.5,565.5C 290.977,566.478 291.643,567.311 292.5,568C 300.46,566.499 308.294,563.999 316,560.5C 316.5,560.833 317,561.167 317.5,561.5C 311.243,567.389 304.077,571.055 296,572.5C 295.248,576.837 294.914,581.171 295,585.5C 298.655,588.295 301.488,591.795 303.5,596C 306.019,596.586 308.019,597.753 309.5,599.5 Z"/></g>
<g><path style="opacity:1" fill="#175386" d="M 95.5,530.5 C 98.1873,530.336 100.854,530.503 103.5,531C 99.6667,535.5 95.8333,540 92,544.5C 89.7067,540.748 87.5401,536.914 85.5,533C 88.9523,532.115 92.2856,531.282 95.5,530.5 Z"/></g>
<g><path style="opacity:1" fill="#d8d3c4" d="M 644.5,531.5 C 660.022,532.91 675.522,534.577 691,536.5C 694.353,536.415 697.519,535.915 700.5,535C 696.833,541.333 693.167,547.667 689.5,554C 688.668,554.688 688.002,554.521 687.5,553.5C 688.767,551.629 688.767,549.796 687.5,548C 683.453,545.927 679.62,546.093 676,548.5C 674.213,552.577 672.046,556.41 669.5,560C 671.585,564.461 674.919,566.795 679.5,567C 680.333,566.167 681.167,565.333 682,564.5C 681.442,569.58 679.275,573.913 675.5,577.5C 674.772,574.788 673.939,572.121 673,569.5C 663.546,557.044 653.712,544.877 643.5,533C 644.056,532.617 644.389,532.117 644.5,531.5 Z"/></g>
<g><path style="opacity:1" fill="#b5a589" d="M 548.5,541.5 C 544.728,547.8 539.228,551.467 532,552.5C 531.761,554.725 532.595,555.058 534.5,553.5C 535.823,555.204 535.49,556.537 533.5,557.5C 531.292,555.898 528.959,554.564 526.5,553.5C 522.499,556.503 518.166,559.003 513.5,561C 509.571,561.18 505.738,561.347 502,561.5C 498.751,559.899 495.251,559.066 491.5,559C 491.043,558.586 490.709,558.086 490.5,557.5C 491.689,556.571 493.022,556.238 494.5,556.5C 494.5,555.5 494.5,554.5 494.5,553.5C 498.848,553.65 502.514,552.316 505.5,549.5C 508.054,550.527 510.054,549.694 511.5,547C 513.833,546.667 516.167,546.333 518.5,546C 519.381,545.292 520.047,544.458 520.5,543.5C 530.326,548.115 539.659,547.448 548.5,541.5 Z"/></g>
<g><path style="opacity:1" fill="#145285" d="M 656.5,543.5 C 662.513,544.168 668.513,545.002 674.5,546C 672.041,549.75 669.708,553.583 667.5,557.5C 663.345,553.175 659.678,548.508 656.5,543.5 Z"/></g>
<g><path style="opacity:1" fill="#d8d3c4" d="M 632.5,552.5 C 637.554,555.374 642.22,558.874 646.5,563C 641.515,562.781 636.515,562.781 631.5,563C 620.077,567.017 617.577,574.184 624,584.5C 629.703,591.257 636.536,596.423 644.5,600C 653.7,601.817 659.867,598.317 663,589.5C 663.499,585.179 663.666,580.846 663.5,576.5C 664.5,576.5 665.5,576.5 666.5,576.5C 668.304,595.523 659.804,606.523 641,609.5C 621.578,606.402 613.245,595.069 616,575.5C 618.938,567.562 624.272,561.896 632,558.5C 632.495,556.527 632.662,554.527 632.5,552.5 Z"/></g>
<g><path style="opacity:1" fill="#d8d3c4" d="M 121.5,560.5 C 139.227,558.613 150.393,566.28 155,583.5C 156.825,584.103 158.659,584.77 160.5,585.5C 156.386,589.064 152.052,592.397 147.5,595.5C 147.167,595 146.833,594.5 146.5,594C 149.283,588.118 150.116,581.951 149,575.5C 146.677,570.679 142.844,568.012 137.5,567.5C 123.567,571.273 113.9,579.773 108.5,593C 111.147,603.587 117.981,609.087 129,609.5C 117.606,612.027 109.273,607.361 104,595.5C 99.5394,582.929 102.706,572.762 113.5,565C 116.391,563.726 119.058,562.226 121.5,560.5 Z"/></g>
<g><path style="opacity:1" fill="#fefdfd" d="M 452.5,571.5 C 458.652,570.408 463.818,572.075 468,576.5C 469.672,582.658 467.838,587.491 462.5,591C 466.132,592.659 469.799,594.326 473.5,596C 482.48,610.064 478.814,619.397 462.5,624C 449.694,627.169 443.527,622.336 444,609.5C 445.977,606.688 448.144,604.022 450.5,601.5C 440.652,599.837 435.819,594.17 436,584.5C 437.061,581.438 438.894,578.938 441.5,577C 445.259,575.121 448.925,573.287 452.5,571.5 Z"/></g>
<g><path style="opacity:1" fill="#e1dac8" d="M 448.5,575.5 C 452.287,574.814 455.454,575.814 458,578.5C 459.354,582.363 459.854,586.363 459.5,590.5C 452.094,591.304 447.094,588.304 444.5,581.5C 444.866,578.744 446.2,576.744 448.5,575.5 Z"/></g>
<g><path style="opacity:1" fill="#fdfdfc" d="M 306.5,608.5 C 307.654,605.548 308.654,602.548 309.5,599.5C 311.226,594.145 312.892,588.645 314.5,583C 314.167,582.167 313.833,581.333 313.5,580.5C 310.823,579.926 308.157,579.259 305.5,578.5C 313.424,576.446 321.424,576.112 329.5,577.5C 324.66,591.521 320.326,605.687 316.5,620C 316.867,624.204 319.2,626.704 323.5,627.5C 323,627.833 322.5,628.167 322,628.5C 312.578,625.692 303.244,622.692 294,619.5C 293.333,618.833 293.333,618.167 294,617.5C 302.091,620.265 306.257,617.265 306.5,608.5 Z"/></g>
<g><path style="opacity:1" fill="#fdfdfc" d="M 404.5,582.5 C 418.029,581.202 424.529,587.202 424,600.5C 418.977,609.195 412.81,617.028 405.5,624C 411.921,624.369 418.254,623.703 424.5,622C 426.422,620.58 427.755,618.747 428.5,616.5C 429.321,621.803 429.321,627.137 428.5,632.5C 416.793,633.541 405.126,634.875 393.5,636.5C 393.351,635.448 393.517,634.448 394,633.5C 402.6,625.294 408.934,615.628 413,604.5C 414.167,595 410,590.833 400.5,592C 397.355,593.978 394.688,596.478 392.5,599.5C 392.167,599 391.833,598.5 391.5,598C 393.632,590.855 397.965,585.689 404.5,582.5 Z"/></g>
<g><path style="opacity:1" fill="#fdfdfc" d="M 355.5,583.5 C 374.596,581.763 383.096,590.43 381,609.5C 375.975,623.176 366.141,631.009 351.5,633C 348.118,633.824 344.784,633.657 341.5,632.5C 352.692,631.246 360.692,625.579 365.5,615.5C 346.581,616.04 340.747,607.373 348,589.5C 350.114,586.879 352.614,584.879 355.5,583.5 Z"/></g>
<g><path style="opacity:1" fill="#e1dac8" d="M 360.5,585.5 C 362.527,585.338 364.527,585.505 366.5,586C 367.126,586.75 367.626,587.584 368,588.5C 368.762,596.215 368.429,603.881 367,611.5C 362.511,613.421 359.511,612.087 358,607.5C 357.333,601.5 357.333,595.5 358,589.5C 358.662,588.016 359.496,586.683 360.5,585.5 Z"/></g>
<g><path style="opacity:1" fill="#dad4c4" d="M 597.5,595.5 C 598.043,595.56 598.376,595.893 598.5,596.5C 596.182,599.416 596.016,602.416 598,605.5C 606.136,614.637 614.636,623.47 623.5,632C 626.304,632.129 628.97,631.796 631.5,631C 625.636,637.199 619.469,643.032 613,648.5C 614.082,645.707 614.415,642.707 614,639.5C 605.833,630.667 597.667,621.833 589.5,613C 586.416,611.016 583.416,611.182 580.5,613.5C 585.196,607.121 590.862,601.121 597.5,595.5 Z"/></g>
<g><path style="opacity:1" fill="#d8d3c4" d="M 175.5,602.5 C 176.833,602.5 178.167,602.5 179.5,602.5C 174.109,617.836 168.609,633.169 163,648.5C 162.747,651.2 162.747,653.867 163,656.5C 157.167,651.333 151.333,646.167 145.5,641C 146,640.5 146.5,640 147,639.5C 148.684,641.701 150.684,642.367 153,641.5C 154.658,638.691 155.825,635.691 156.5,632.5C 156.124,630.617 155.124,629.117 153.5,628C 150.872,626.374 148.539,624.374 146.5,622C 142.006,621.745 138.34,623.412 135.5,627C 136.484,628.657 137.484,630.323 138.5,632C 133.778,630.319 129.778,627.319 126.5,623C 129.5,622.667 132.5,622.333 135.5,622C 149.047,615.725 162.381,609.225 175.5,602.5 Z"/></g>
<g><path style="opacity:1" fill="#e1dac8" d="M 453.5,602.5 C 462.233,602.18 467.566,606.18 469.5,614.5C 468.811,618.687 466.311,621.02 462,621.5C 457.051,620.552 454.051,617.552 453,612.5C 452.341,609.112 452.508,605.779 453.5,602.5 Z"/></g>
<g><path style="opacity:1" fill="#155285" d="M 163.5,611.5 C 164.043,611.56 164.376,611.893 164.5,612.5C 162.422,617.907 160.255,623.241 158,628.5C 154.353,626.021 151.187,623.021 148.5,619.5C 153.57,616.822 158.57,614.155 163.5,611.5 Z"/></g>
<g><path style="opacity:1" fill="#d7d2c4" d="M 572.5,618.5 C 573.376,618.369 574.043,618.702 574.5,619.5C 571.979,621.26 571.146,623.593 572,626.5C 580.377,638.754 588.877,650.921 597.5,663C 596.892,663.87 596.059,664.37 595,664.5C 579.405,660.135 563.905,655.468 548.5,650.5C 547.479,651.002 547.312,651.668 548,652.5C 553.711,660.755 559.544,668.921 565.5,677C 568.332,677.212 570.998,677.379 573.5,677.5C 569.486,680.676 565.319,683.676 561,686.5C 559.341,685.046 559.674,683.713 562,682.5C 562.667,681.167 562.667,679.833 562,678.5C 555.536,668.405 548.703,658.572 541.5,649C 538.879,648.061 536.212,647.228 533.5,646.5C 537.462,643.512 541.462,640.512 545.5,637.5C 557.686,642.129 570.019,645.463 582.5,647.5C 578.557,640.892 574.224,634.559 569.5,628.5C 566.631,627.609 563.964,627.276 561.5,627.5C 565.014,624.253 568.68,621.253 572.5,618.5 Z"/></g>
<g><path style="opacity:1" fill="#dad4c5" d="M 195.5,620.5 C 206.511,626.255 216.345,633.589 225,642.5C 230.606,656.029 227.439,667.195 215.5,676C 209.113,679.599 202.446,680.265 195.5,678C 186.326,673.249 177.659,667.749 169.5,661.5C 171.343,661.245 173.343,661.078 175.5,661C 183.617,650.602 191.117,639.769 198,628.5C 198.667,627.167 198.667,625.833 198,624.5C 196.519,623.529 195.685,622.196 195.5,620.5 Z"/></g>
<g><path style="opacity:1" fill="#0c4f84" d="M 208.5,633.5 C 212.912,634.07 216.078,636.403 218,640.5C 218.6,655.8 212.1,666.966 198.5,674C 194.233,674.46 190.4,673.294 187,670.5C 186.333,669.167 186.333,667.833 187,666.5C 194.177,655.472 201.344,644.472 208.5,633.5 Z"/></g>
<g><path style="opacity:1" fill="#d9d4c4" d="M 236.5,647.5 C 249.602,652.885 262.268,659.051 274.5,666C 272.858,670.12 270.858,673.953 268.5,677.5C 269.317,666.947 264.317,660.614 253.5,658.5C 249.367,663.256 246.367,668.756 244.5,675C 249.931,678.755 254.598,677.755 258.5,672C 259.332,671.312 259.998,671.479 260.5,672.5C 257.435,679.63 254.102,686.63 250.5,693.5C 250.723,689.792 250.223,686.126 249,682.5C 247.181,679.743 244.848,678.743 242,679.5C 240.274,683.953 238.274,688.286 236,692.5C 235.333,694.5 235.333,696.5 236,698.5C 245.315,704.261 254.149,703.595 262.5,696.5C 263.408,697.79 263.241,699.123 262,700.5C 259.634,703.86 256.967,706.86 254,709.5C 241.222,703.859 228.722,697.859 216.5,691.5C 218.929,691.579 221.429,691.245 224,690.5C 230.052,678.398 235.552,666.064 240.5,653.5C 239.142,651.497 237.809,649.497 236.5,647.5 Z"/></g>
<g><path style="opacity:1" fill="#dad4c5" d="M 523.5,649.5 C 525.885,650.867 525.552,652.201 522.5,653.5C 521.359,655.421 521.192,657.421 522,659.5C 527.606,670.378 532.939,681.378 538,692.5C 540.857,693.143 543.691,693.476 546.5,693.5C 539.377,697.544 532.044,701.211 524.5,704.5C 524.167,704.167 523.833,703.833 523.5,703.5C 525.041,701.796 526.375,699.963 527.5,698C 521.748,685.829 515.748,673.829 509.5,662C 507.167,661.667 504.833,661.333 502.5,661C 509.594,657.124 516.594,653.291 523.5,649.5 Z"/></g>
<g><path style="opacity:1" fill="#d8d3c4" d="M 488.5,664.5 C 489.496,664.414 490.329,664.748 491,665.5C 492.401,669.871 493.901,674.204 495.5,678.5C 495,678.833 494.5,679.167 494,679.5C 490.261,674.461 485.261,671.461 479,670.5C 470.418,671.909 468.251,676.409 472.5,684C 474.087,684.862 475.754,685.529 477.5,686C 484.346,686.61 491.013,687.943 497.5,690C 506.459,698.002 506.793,706.335 498.5,715C 492.37,718.742 485.704,720.408 478.5,720C 477.663,721.011 477.33,722.178 477.5,723.5C 476.5,723.5 475.5,723.5 474.5,723.5C 473.563,718.252 472.229,713.085 470.5,708C 470.833,707.5 471.167,707 471.5,706.5C 473.622,709.124 475.955,711.624 478.5,714C 484.754,717.654 490.588,717.154 496,712.5C 498.705,706.406 496.872,702.239 490.5,700C 483.046,700.11 476.046,698.444 469.5,695C 460.178,684.248 461.845,675.581 474.5,669C 478.5,668.667 482.5,668.333 486.5,668C 487.973,667.29 488.64,666.124 488.5,664.5 Z"/></g>
<g><path style="opacity:1" fill="#d9d3c4" d="M 285.5,670.5 C 291.515,671.129 297.348,672.463 303,674.5C 305.719,686.426 308.052,698.426 310,710.5C 317.167,700.667 324.333,690.833 331.5,681C 337.68,681.535 343.68,683.035 349.5,685.5C 344.413,685.143 341.58,687.476 341,692.5C 337.91,704.372 335.91,716.372 335,728.5C 336.074,729.618 337.24,730.618 338.5,731.5C 338.167,731.833 337.833,732.167 337.5,732.5C 330.03,730.924 322.696,728.924 315.5,726.5C 317.686,725.779 319.853,725.113 322,724.5C 325.213,712.195 327.88,699.862 330,687.5C 322,698.833 314,710.167 306,721.5C 304.981,722.687 303.814,723.687 302.5,724.5C 299.017,709.234 295.85,693.901 293,678.5C 290.106,689.909 287.606,701.409 285.5,713C 285.667,714.5 285.833,716 286,717.5C 287.586,718.376 289.086,719.376 290.5,720.5C 285.021,721.029 279.688,720.029 274.5,717.5C 276.423,716.692 278.423,716.192 280.5,716C 284.097,702.94 287.43,689.773 290.5,676.5C 289.057,674.287 287.391,672.287 285.5,670.5 Z"/></g>
<g><path style="opacity:1" fill="#d7d2c4" d="M 406.5,682.5 C 408.017,682.511 409.184,683.177 410,684.5C 417.452,699.239 425.285,713.739 433.5,728C 434.938,728.219 436.271,728.719 437.5,729.5C 430.284,731.079 422.95,732.079 415.5,732.5C 414.833,732.167 414.167,731.833 413.5,731.5C 416.053,730.904 417.72,729.404 418.5,727C 417.923,724.343 416.923,721.843 415.5,719.5C 410.533,718.338 405.533,718.171 400.5,719C 399.584,719.374 398.75,719.874 398,720.5C 396.544,724.015 396.378,727.515 397.5,731C 399.256,731.202 400.922,731.702 402.5,732.5C 397.531,734.082 392.531,734.416 387.5,733.5C 389.149,732.352 390.649,731.019 392,729.5C 396.743,713.774 401.576,698.107 406.5,682.5 Z"/></g>
<g><path style="opacity:1" fill="#dcd5c5" d="M 357.5,685.5 C 366.009,684.179 374.675,684.179 383.5,685.5C 380.478,685.928 377.978,687.261 376,689.5C 374.719,703.148 374.385,716.814 375,730.5C 376.648,731.717 378.481,732.55 380.5,733C 372.147,733.832 363.813,733.665 355.5,732.5C 358.166,731.961 360.333,730.628 362,728.5C 363.281,714.852 363.615,701.186 363,687.5C 361.416,686.139 359.582,685.472 357.5,685.5 Z"/></g>
<g><path style="opacity:1" fill="#175386" d="M 403.5,699.5 C 404.496,699.414 405.329,699.748 406,700.5C 408.372,705.412 410.872,710.245 413.5,715C 408.816,715.435 404.149,715.935 399.5,716.5C 400.991,710.868 402.325,705.201 403.5,699.5 Z"/></g>
</svg>
